<svg width="115" height="15" viewBox="0 0 115 15" fill="none" xmlns="http://www.w3.org/2000/svg">
<path d="M6.07085 0.123291L5.22456 3.37832H2.02342L1.37951 5.78417H7.03672L7.68064 3.37832H7.66222L8.50851 0.123291H6.07085Z" fill="white"/>
<path d="M16.2818 3.37832L15.5919 5.78417L9.93466 5.78415L10.5786 3.37832H10.5797L11.4524 0.123291H13.8901L13.0438 3.37832H16.2818Z" fill="white"/>
<path d="M6.28024 8.74137L6.30113 8.66181H0.597911L0 11.1148H3.18459L2.34531 14.3698H4.82896L6.28024 8.74137Z" fill="white"/>
<path d="M14.2117 11.1148L14.8556 8.66181H9.19838L8.55447 11.1148H8.56633L7.72703 14.3698H10.1647L11.004 11.1148H14.2117Z" fill="white"/>
<path fill-rule="evenodd" clip-rule="evenodd" d="M36.3075 11.2553C35.7135 11.2553 35.1672 11.1526 34.6685 10.9473C34.1699 10.7346 33.7372 10.4523 33.3705 10.1003C33.0112 9.74093 32.7289 9.32293 32.5235 8.84626C32.3255 8.36226 32.2265 7.84526 32.2265 7.29526V7.27326C32.2265 6.72326 32.3292 6.20993 32.5345 5.73326C32.7399 5.24926 33.0222 4.82759 33.3815 4.46826C33.7482 4.10159 34.1809 3.81559 34.6795 3.61026C35.1855 3.39759 35.7355 3.29126 36.3295 3.29126C36.9235 3.29126 37.4699 3.39759 37.9685 3.61026C38.4672 3.81559 38.8962 4.09793 39.2555 4.45726C39.6222 4.80926 39.9045 5.22726 40.1025 5.71126C40.3079 6.18793 40.4105 6.70126 40.4105 7.25126V7.27326C40.4105 7.82326 40.3079 8.34026 40.1025 8.82426C39.8972 9.30093 39.6112 9.72259 39.2445 10.0893C38.8852 10.4486 38.4525 10.7346 37.9465 10.9473C37.4479 11.1526 36.9015 11.2553 36.3075 11.2553ZM36.3295 9.69326C36.6669 9.69326 36.9785 9.63093 37.2645 9.50626C37.5505 9.38159 37.7925 9.20926 37.9905 8.98926C38.1959 8.76926 38.3535 8.51626 38.4635 8.23026C38.5809 7.93693 38.6395 7.62526 38.6395 7.29526V7.27326C38.6395 6.94326 38.5809 6.63159 38.4635 6.33826C38.3535 6.04493 38.1922 5.78826 37.9795 5.56826C37.7742 5.34826 37.5285 5.17593 37.2425 5.05126C36.9565 4.91926 36.6449 4.85326 36.3075 4.85326C35.9629 4.85326 35.6475 4.91559 35.3615 5.04026C35.0829 5.16493 34.8409 5.33726 34.6355 5.55726C34.4375 5.77726 34.2799 6.03393 34.1625 6.32726C34.0525 6.61326 33.9975 6.92126 33.9975 7.25126V7.27326C33.9975 7.60326 34.0525 7.91493 34.1625 8.20826C34.2799 8.50159 34.4412 8.75826 34.6465 8.97826C34.8592 9.19826 35.1049 9.37426 35.3835 9.50626C35.6695 9.63093 35.9849 9.69326 36.3295 9.69326Z" fill="white"/>
<path d="M22.694 3.42326H21V11.1233H22.694V3.42326Z" fill="white"/>
<path fill-rule="evenodd" clip-rule="evenodd" d="M28.1383 3.42326H24.6183V11.1233H26.3123V8.65926H27.6433L29.2933 11.1233H31.2733L29.3923 8.37326C29.8836 8.18993 30.2796 7.90393 30.5803 7.51526C30.8883 7.11926 31.0423 6.60959 31.0423 5.98626V5.96426C31.0423 5.23093 30.8223 4.64426 30.3823 4.20426C29.8616 3.68359 29.1136 3.42326 28.1383 3.42326ZM28.9853 6.86626C28.7653 7.06426 28.4463 7.16326 28.0283 7.16326H26.3123V4.95226H27.9953C28.4133 4.95226 28.7396 5.04393 28.9743 5.22726C29.209 5.41059 29.3263 5.68559 29.3263 6.05226V6.07426C29.3263 6.40426 29.2126 6.66826 28.9853 6.86626Z" fill="white"/>
<path d="M43.4752 3.42326H41.9132V11.1233H43.5852V6.22826L47.3142 11.1233H48.7552V3.42326H47.0832V8.16426L43.4752 3.42326Z" fill="white"/>
<path d="M51.4397 5.34826C51.4397 5.17226 51.4763 5.00726 51.5497 4.85326C51.6303 4.69926 51.7403 4.56726 51.8797 4.45726C52.0263 4.34726 52.1987 4.25926 52.3967 4.19326C52.602 4.12726 52.8293 4.09426 53.0787 4.09426C53.4747 4.09426 53.8523 4.16026 54.2117 4.29226C54.5783 4.42426 54.9413 4.63693 55.3007 4.93026L55.8067 4.25926C55.4107 3.94393 55 3.70926 54.5747 3.55526C54.1567 3.39393 53.6653 3.31326 53.1007 3.31326C52.734 3.31326 52.3967 3.36826 52.0887 3.47826C51.7807 3.58093 51.513 3.72759 51.2857 3.91826C51.0583 4.10159 50.8823 4.32159 50.7577 4.57826C50.633 4.83493 50.5707 5.11726 50.5707 5.42526C50.5707 5.74793 50.622 6.02659 50.7247 6.26126C50.8273 6.49593 50.985 6.70126 51.1977 6.87726C51.4103 7.05326 51.678 7.20359 52.0007 7.32826C52.3307 7.45293 52.7157 7.56293 53.1557 7.65826C53.559 7.74626 53.889 7.83793 54.1457 7.93326C54.4097 8.02859 54.615 8.13493 54.7617 8.25226C54.9083 8.36959 55.011 8.50159 55.0697 8.64826C55.1283 8.78759 55.1577 8.94893 55.1577 9.13226C55.1577 9.52826 55 9.84726 54.6847 10.0893C54.3767 10.3313 53.9623 10.4523 53.4417 10.4523C52.9063 10.4523 52.4333 10.3643 52.0227 10.1883C51.612 10.0049 51.205 9.72993 50.8017 9.36326L50.2627 10.0013C50.7247 10.4193 51.2087 10.7309 51.7147 10.9363C52.228 11.1343 52.7927 11.2333 53.4087 11.2333C53.79 11.2333 54.142 11.1819 54.4647 11.0793C54.7873 10.9766 55.0623 10.8299 55.2897 10.6393C55.5243 10.4486 55.7077 10.2176 55.8397 9.94626C55.9717 9.67493 56.0377 9.37426 56.0377 9.04426C56.0377 8.45026 55.8323 7.98459 55.4217 7.64726C55.0183 7.30993 54.3877 7.04593 53.5297 6.85526C53.1043 6.76726 52.756 6.67559 52.4847 6.58026C52.2133 6.47759 52.0007 6.36759 51.8467 6.25026C51.6927 6.12559 51.5863 5.98993 51.5277 5.84326C51.469 5.69659 51.4397 5.53159 51.4397 5.34826Z" fill="white"/>
<path fill-rule="evenodd" clip-rule="evenodd" d="M65.0318 5.74426C65.2225 6.22093 65.3178 6.72693 65.3178 7.26226C65.3178 7.79759 65.2225 8.30726 65.0318 8.79126C64.8411 9.26793 64.5735 9.68959 64.2288 10.0563C63.8841 10.4229 63.4698 10.7163 62.9858 10.9363C62.5018 11.1489 61.9665 11.2553 61.3798 11.2553C60.7931 11.2553 60.2578 11.1489 59.7738 10.9363C59.2971 10.7236 58.8865 10.4376 58.5418 10.0783C58.1971 9.71159 57.9295 9.28993 57.7388 8.81326C57.5555 8.32926 57.4638 7.81959 57.4638 7.28426C57.4638 6.74893 57.5591 6.24293 57.7498 5.76626C57.9405 5.28226 58.2081 4.85693 58.5528 4.49026C58.8975 4.12359 59.3118 3.83393 59.7958 3.62126C60.2798 3.40126 60.8151 3.29126 61.4018 3.29126C61.9885 3.29126 62.5201 3.39759 62.9968 3.61026C63.4808 3.82293 63.8951 4.11259 64.2398 4.47926C64.5845 4.83859 64.8485 5.26026 65.0318 5.74426ZM64.1848 8.52726C64.3388 8.13859 64.4158 7.72426 64.4158 7.28426C64.4158 6.84426 64.3388 6.42993 64.1848 6.04126C64.0381 5.65259 63.8291 5.31526 63.5578 5.02926C63.2865 4.74326 62.9638 4.51593 62.5898 4.34726C62.2231 4.17859 61.8198 4.09426 61.3798 4.09426C60.9398 4.09426 60.5328 4.17859 60.1588 4.34726C59.7921 4.50859 59.4768 4.73226 59.2128 5.01826C58.9488 5.30426 58.7398 5.64159 58.5858 6.03026C58.4391 6.41159 58.3658 6.82226 58.3658 7.26226C58.3658 7.70226 58.4391 8.11659 58.5858 8.50526C58.7398 8.89393 58.9525 9.23126 59.2238 9.51726C59.4951 9.80326 59.8141 10.0306 60.1808 10.1993C60.5548 10.3679 60.9618 10.4523 61.4018 10.4523C61.8418 10.4523 62.2451 10.3716 62.6118 10.2103C62.9858 10.0416 63.3048 9.81426 63.5688 9.52826C63.8328 9.24226 64.0381 8.90859 64.1848 8.52726Z" fill="white"/>
<path d="M72.6835 3.42326H67.1505V11.1233H68.0195V7.76826H72.1885V6.97626H68.0195V4.22626H72.6835V3.42326Z" fill="white"/>
<path d="M79.8692 4.22626H77.2842V11.1233H76.4043V4.22626H73.8192V3.42326H79.8692V4.22626Z" fill="white"/>
<path d="M84.0541 9.83626L81.8541 3.42326H80.9081L83.6581 11.1783H84.3841L86.5071 4.93026L88.6191 11.1783H89.3561L92.1061 3.42326H91.1931L88.9931 9.83626L86.8811 3.40126H86.1661L84.0541 9.83626Z" fill="white"/>
<path fill-rule="evenodd" clip-rule="evenodd" d="M95.5444 3.36826H96.3584L99.8674 11.1233H98.9324L98.0304 9.08826H93.8394L92.9264 11.1233H92.0354L95.5444 3.36826ZM94.1804 8.30726H97.6894L95.9404 4.38026L94.1804 8.30726Z" fill="white"/>
<path fill-rule="evenodd" clip-rule="evenodd" d="M107.755 11.1233L105.39 7.97726C105.691 7.92593 105.969 7.83793 106.226 7.71326C106.483 7.58859 106.703 7.43459 106.886 7.25126C107.077 7.06059 107.223 6.84059 107.326 6.59126C107.429 6.33459 107.48 6.04493 107.48 5.72226C107.48 5.37759 107.414 5.06593 107.282 4.78726C107.15 4.50126 106.963 4.25926 106.721 4.06126C106.479 3.85593 106.186 3.69826 105.841 3.58826C105.504 3.47826 105.122 3.42326 104.697 3.42326H101.386V11.1233H102.255V8.13126H104.455L106.688 11.1233H107.755ZM106.6 5.75526C106.6 6.00459 106.549 6.22826 106.446 6.42626C106.351 6.62426 106.215 6.79293 106.039 6.93226C105.863 7.06426 105.654 7.16693 105.412 7.24026C105.17 7.31359 104.906 7.35026 104.62 7.35026H102.255V4.22626H104.631C105.254 4.22626 105.738 4.36193 106.083 4.63326C106.428 4.89726 106.6 5.27126 106.6 5.75526Z" fill="white"/>
<path d="M109.335 3.42326H114.901V4.21526H110.204V6.84426H114.406V7.63626H110.204V10.3313H114.956V11.1233H109.335V3.42326Z" fill="white"/>
</svg>
