<svg width="446" height="354" viewBox="0 0 446 354" fill="none" xmlns="http://www.w3.org/2000/svg">
<g opacity="0.8" filter="url(#filter0_f_1_2761)">
<path d="M89 232.935H190.879V216.916H202.86V194.988H216.013V211.962L242.811 188.29V264.896H344.69V248.892H356.668V216.916H344.69V141.87L323.955 121.074H242.811V145.845L216.013 122.073V138.857H190.879V109.909L170.144 89.1128H89V232.935Z" fill="url(#paint0_linear_1_2761)"/>
</g>
<g filter="url(#filter1_d_1_2761)">
<path fill-rule="evenodd" clip-rule="evenodd" d="M242.813 264.896H344.692V141.87L323.957 121.074H242.813V264.896Z" fill="#F20036"/>
<path fill-rule="evenodd" clip-rule="evenodd" d="M323.986 141.857L334.312 131.484L344.691 141.857V162.657L323.986 141.857Z" fill="#E10029"/>
<path fill-rule="evenodd" clip-rule="evenodd" d="M344.691 141.874H323.985V121.091L344.691 141.874Z" fill="#A8000A"/>
<path fill-rule="evenodd" clip-rule="evenodd" d="M321.728 173.257L308.826 175.666L297.994 160.875L302.349 150.96L300.063 144.331L286.617 145.208L284.222 149.425L291.516 161.479L281.881 180.707L264.244 183.994L260.706 195.718L269.688 205.031L278.724 204.921L285.91 188.431L304.472 183.063L309.153 190.787L319.169 189.91L324.994 177.091L321.728 173.257ZM290.046 149.864L297.014 150.467L294.347 155.781L290.046 149.864ZM273.553 197.36L270.45 192.923L276.656 191.115L273.553 197.36ZM290.046 179.172L295.163 167.504L301.042 177.146L290.046 179.172ZM312.528 180.707L317.427 179.282L314.488 183.392L312.528 180.707Z" fill="white"/>
<path fill-rule="evenodd" clip-rule="evenodd" d="M276.771 216.916H356.671V248.892H276.771V216.916Z" fill="#A8000A"/>
<path fill-rule="evenodd" clip-rule="evenodd" d="M287.956 237.325V241.304H292.065V237.325H287.956ZM307.848 234.539C308.503 234.024 309.017 233.385 309.392 232.622C309.766 231.86 309.953 230.972 309.953 229.961V229.911C309.953 229.015 309.796 228.198 309.481 227.46C309.166 226.723 308.716 226.087 308.129 225.557C307.542 225.026 306.827 224.616 305.985 224.325C305.143 224.036 304.186 223.89 303.114 223.89H295.816V241.304H299.746V236.08H302.732C303.735 236.08 304.675 235.952 305.551 235.695C306.427 235.437 307.193 235.052 307.848 234.539ZM305.117 228.02C305.687 228.467 305.972 229.123 305.972 229.985V230.035C305.972 230.782 305.7 231.407 305.156 231.913C304.611 232.419 303.846 232.672 302.859 232.672H299.746V227.348H302.783C303.769 227.348 304.547 227.572 305.117 228.02ZM326.681 238.793C327.523 238.013 328.174 237.093 328.633 236.031C329.092 234.97 329.322 233.825 329.322 232.597V232.548C329.322 231.32 329.092 230.18 328.633 229.127C328.174 228.073 327.523 227.158 326.681 226.377C325.839 225.599 324.835 224.989 323.67 224.549C322.504 224.11 321.224 223.89 319.829 223.89H312.863V241.304H319.829C321.224 241.304 322.504 241.081 323.67 240.633C324.835 240.186 325.839 239.572 326.681 238.793ZM324.818 230.484C325.082 231.129 325.214 231.835 325.214 232.597V232.647C325.214 233.427 325.082 234.132 324.818 234.762C324.554 235.392 324.189 235.941 323.721 236.404C323.253 236.869 322.687 237.225 322.024 237.473C321.36 237.722 320.629 237.847 319.829 237.847H316.792V227.348H319.829C320.629 227.348 321.36 227.477 322.024 227.733C322.687 227.991 323.253 228.352 323.721 228.816C324.189 229.28 324.554 229.837 324.818 230.484ZM336.748 231.105V227.348H346.42V223.89H332.818V241.304H336.748V234.563H345.271V231.105H336.748Z" fill="white"/>
<path fill-rule="evenodd" clip-rule="evenodd" d="M219.013 122.066V138.85H159.92V194.981H219.013V211.955L269.785 167.105L219.013 122.066Z" fill="#1B0B1C"/>
<path fill-rule="evenodd" clip-rule="evenodd" d="M234 160.637C234 159.904 233.474 159.004 232.831 158.638L221.669 152.275C221.026 151.908 219.974 151.908 219.331 152.275L208.169 158.638C207.526 159.004 207 159.904 207 160.637V173.363C207 173.729 207.131 174.138 207.343 174.5C207.555 174.863 207.847 175.179 208.169 175.362L219.331 181.725C219.662 181.914 220.102 182.006 220.539 182C220.632 181.999 220.725 181.993 220.816 181.983C221.129 181.949 221.428 181.863 221.669 181.725L232.831 175.362C233.152 175.179 233.445 174.862 233.656 174.5C233.868 174.138 234 173.729 234 173.363V160.637ZM220.5 175.887C215.537 175.887 211.5 171.9 211.5 167C211.5 162.1 215.537 158.114 220.5 158.114C223.702 158.114 226.689 159.815 228.294 162.554L224.399 164.78C223.596 163.409 222.101 162.557 220.5 162.557C218.019 162.557 216 164.55 216 167C216 169.45 218.019 171.443 220.5 171.443C222.102 171.443 223.596 170.592 224.399 169.22L228.294 171.446C226.689 174.185 223.702 175.887 220.5 175.887ZM229.5 166.506H228.5V165.519H227.5V166.506H226.5V167.494H227.5V168.481H228.5V167.494H229.5V166.506ZM233.25 166.506H232.25V165.519H231.25V166.506H230.25V167.494H231.25V168.481H232.25V167.494H233.25V166.506Z" fill="white"/>
<path fill-rule="evenodd" clip-rule="evenodd" d="M89 232.935H190.879V109.909L170.144 89.1129H89V232.935Z" fill="#F49400"/>
<path fill-rule="evenodd" clip-rule="evenodd" d="M170.174 109.914L180.499 99.5398L190.879 109.914V130.713L170.174 109.914Z" fill="#F08400"/>
<path fill-rule="evenodd" clip-rule="evenodd" d="M190.878 109.931H170.173V89.1482L190.878 109.931Z" fill="#D23F00"/>
<path fill-rule="evenodd" clip-rule="evenodd" d="M105.982 184.941H202.86V216.917H105.982V184.941Z" fill="#D24000"/>
<path fill-rule="evenodd" clip-rule="evenodd" d="M162.132 129.886H140.942H128.558L129.359 138.918H140.942H161.331L158.924 165.999L140.942 171.007L140.927 171.012L122.954 165.999L121.698 151.835H130.504L131.16 159.185L140.932 161.836L140.942 161.831L150.724 159.18L151.744 147.741H140.942H121.338L118.966 121.074H140.942H162.912L162.132 129.886Z" fill="#FEFEFE"/>
<path fill-rule="evenodd" clip-rule="evenodd" d="M134.22 209.979V202.763H127.128V209.979H123.283V192.002H127.128V199.116H134.22V192.002H138.065V209.979H134.22ZM114.983 209.979V205.871H119.003V209.979H114.983ZM150.1 209.979V195.648H155.418V192.002H140.936V195.648H146.255V209.979H150.1ZM171.96 209.979V198.242L167.041 205.922H166.942L162.073 198.32V209.979H158.277V192.002H162.422L167.016 199.604L171.611 192.002H175.756V209.979H171.96ZM180.315 192.002V209.979H192.875V206.41H184.16V192.002H180.315Z" fill="white"/>
</g>
<defs>
<filter id="filter0_f_1_2761" x="0" y="0.112793" width="445.668" height="353.783" filterUnits="userSpaceOnUse" color-interpolation-filters="sRGB">
<feFlood flood-opacity="0" result="BackgroundImageFix"/>
<feBlend mode="normal" in="SourceGraphic" in2="BackgroundImageFix" result="shape"/>
<feGaussianBlur stdDeviation="44.5" result="effect1_foregroundBlur_1_2761"/>
</filter>
<filter id="filter1_d_1_2761" x="69" y="74.1129" width="307.671" height="215.783" filterUnits="userSpaceOnUse" color-interpolation-filters="sRGB">
<feFlood flood-opacity="0" result="BackgroundImageFix"/>
<feColorMatrix in="SourceAlpha" type="matrix" values="0 0 0 0 0 0 0 0 0 0 0 0 0 0 0 0 0 0 127 0" result="hardAlpha"/>
<feOffset dy="5"/>
<feGaussianBlur stdDeviation="10"/>
<feColorMatrix type="matrix" values="0 0 0 0 0 0 0 0 0 0 0 0 0 0 0 0 0 0 0.15 0"/>
<feBlend mode="normal" in2="BackgroundImageFix" result="effect1_dropShadow_1_2761"/>
<feBlend mode="normal" in="SourceGraphic" in2="effect1_dropShadow_1_2761" result="shape"/>
</filter>
<linearGradient id="paint0_linear_1_2761" x1="47.8588" y1="103.198" x2="255.471" y2="304.326" gradientUnits="userSpaceOnUse">
<stop stop-color="#E01A59"/>
<stop offset="1" stop-color="#460A48"/>
</linearGradient>
</defs>
</svg>
