<svg width="780" height="698" viewBox="0 0 780 698" fill="none" xmlns="http://www.w3.org/2000/svg">
<path fill-rule="evenodd" clip-rule="evenodd" d="M164.002 353.076H338.315V142.582L302.838 107H164.002V353.076Z" fill="url(#paint0_linear_1_2858)"/>
<path fill-rule="evenodd" clip-rule="evenodd" d="M302.889 142.529L320.555 124.78L338.315 142.529V178.117L302.889 142.529Z" fill="black" fill-opacity="0.1"/>
<path fill-rule="evenodd" clip-rule="evenodd" d="M338.313 142.558H302.887V107L338.313 142.558Z" fill="#0080CD"/>
<g clip-path="url(#clip0_1_2858)">
<path d="M302 178.109C302 175.298 300.012 171.85 297.583 170.445L255.417 146.054C252.988 144.649 249.012 144.649 246.583 146.054L204.417 170.445C201.987 171.85 200 175.299 200 178.109V226.891C200 229.701 201.988 233.15 204.417 234.555L246.583 258.946C249.012 260.351 252.988 260.351 255.417 258.946L297.583 234.555C298.798 233.852 299.902 232.639 300.702 231.25C301.503 229.861 302 228.296 302 226.891V178.109Z" fill="#0080CD"/>
<path d="M255.416 258.946L297.583 234.555C298.797 233.852 299.901 232.639 300.702 231.25L250.999 202.5L201.297 231.25C202.097 232.639 203.202 233.853 204.416 234.555L246.583 258.946C249.012 260.351 252.987 260.351 255.416 258.946Z" fill="#00549E"/>
<path d="M251 236.564C232.252 236.564 217 221.283 217 202.5C217 183.717 232.252 168.436 251 168.436C263.097 168.436 274.38 174.958 280.444 185.457L265.729 193.988C262.694 188.733 257.05 185.468 251 185.468C241.626 185.468 234 193.108 234 202.5C234 211.891 241.626 219.532 251 219.532C257.051 219.532 262.695 216.267 265.73 211.011L280.445 219.541C274.381 230.042 263.098 236.564 251 236.564Z" fill="white"/>
<path d="M284.999 200.608H281.221V196.823H277.444V200.608H273.666V204.392H277.444V208.177H281.221V204.392H284.999V200.608Z" fill="white"/>
<path d="M299.167 200.608H295.389V196.823H291.612V200.608H287.834V204.392H291.612V208.177H295.389V204.392H299.167V200.608Z" fill="white"/>
</g>
<mask id="mask0_1_2858" style="mask-type:alpha" maskUnits="userSpaceOnUse" x="30" y="-52" width="805" height="710">
<path d="M522.239 -52L483.785 20.0306L396.654 13.1596L450.563 82.0982L415.029 148.518L323.639 7.43376L353.819 -41.6936L522.239 -52Z" fill="#89D3DF"/>
<path fill-rule="evenodd" clip-rule="evenodd" d="M834.866 331.401L834.865 331.401L762.216 481.301L702.831 405.148L739.458 357.282L678.372 373.772L702.831 405.148L762.216 481.301L637.117 491.379L578.462 400.797L346.032 463.781L255.86 656.51L142.565 657.999L142.564 658L30 549.324L74.0522 412.02L294.8 373.428L294.802 373.427L483.788 20.0304L522.242 -52L551.205 25.2982L496.807 141.418L632.128 314.566L632.129 314.567L793.492 286.51L834.865 331.4L834.866 331.401ZM151.691 516.344L229.573 495.273L190.39 568.562L190.389 568.563L151.691 516.344ZM460.665 218.945L396.657 355.677L533.68 331.743H533.923L460.665 218.945Z" fill="#89D3DF"/>
</mask>
<g mask="url(#mask0_1_2858)">
<g filter="url(#filter0_d_1_2858)">
<path d="M739.459 357.28L702.83 405.148L762.215 481.301L834.865 331.4L739.459 357.28Z" fill="#258B74"/>
<path d="M396.653 13.1599L323.639 7.43408L415.029 148.518L450.562 82.0985L396.653 13.1599Z" fill="#63C1A0"/>
<path d="M762.217 481.302L702.831 405.148L678.371 373.771L632.129 314.566L631.885 314.681L632.129 314.566L496.808 141.418L460.666 218.945L533.924 331.744H533.681L578.463 400.797L637.118 491.379L669.975 448.321L637.118 491.379L762.217 481.302Z" fill="#63C1A0"/>
<path d="M151.691 516.344L30 549.324L142.564 658L190.389 568.563L151.691 516.344Z" fill="#331433"/>
<path d="M396.655 355.679L294.8 373.429L74.0522 412.021L30 549.325L151.691 516.345L229.573 495.274L346.032 463.782L578.462 400.798L533.679 331.745L396.655 355.679Z" fill="#E01A59"/>
<path d="M793.491 286.51L632.129 314.567L678.372 373.772L739.46 357.281L834.866 331.401L793.491 286.51Z" fill="#E01A59"/>
<path d="M551.206 25.299L483.789 20.0312L450.567 82.0989L415.034 148.518L294.803 373.428L396.658 355.678L460.668 218.946L496.81 141.418L551.206 25.299Z" fill="#ECB32D"/>
<path d="M229.576 495.272L190.391 568.563L209.618 594.443L190.391 568.563L142.566 658L255.861 656.511L346.034 463.781L229.576 495.272Z" fill="#ECB32D"/>
<path d="M483.786 20.0306L522.241 -52L353.82 -41.6936L396.656 13.1596L483.786 20.0306Z" fill="#89D3DF"/>
<path d="M353.818 -41.6934L323.639 7.43401L396.653 13.1598L353.818 -41.6934Z" fill="#89D3DF"/>
<path d="M551.204 25.2983L522.242 -52L483.787 20.0306L551.204 25.2983Z" fill="#89D3DF"/>
</g>
<path fill-rule="evenodd" clip-rule="evenodd" d="M30 0H780V658H30V0Z" fill="url(#paint1_linear_1_2858)"/>
</g>
<path fill-rule="evenodd" clip-rule="evenodd" d="M230 271H359V326H230V271Z" fill="#00549E"/>
<path d="M245.291 313.885H253.893V305.313H245.291V313.885Z" fill="white"/>
<path d="M271.924 314.5C278.649 314.5 282.491 311.555 285.417 307.555L279.042 302.984C277.164 305.225 275.33 306.72 272.142 306.72C267.863 306.72 264.85 303.115 264.85 298.5V298.412C264.85 293.929 267.863 290.236 272.142 290.236C275.112 290.236 277.077 291.687 278.823 293.841L285.198 288.874C282.535 285.137 278.43 282.5 272.23 282.5C262.973 282.5 256.161 289.533 256.161 298.5V298.588C256.161 307.775 263.191 314.5 271.924 314.5Z" fill="white"/>
<path d="M289.104 313.885H297.575V305.093H301.811C309.365 305.093 314.91 301.269 314.91 293.973V293.885C314.91 287.071 309.933 283.115 302.247 283.115H289.104V313.885ZM297.575 298.412V290.28H301.592C304.605 290.28 306.483 291.643 306.483 294.28V294.368C306.483 296.83 304.605 298.412 301.636 298.412H297.575Z" fill="white"/>
<path d="M318.485 313.885H326.956V305.093H331.191C338.745 305.093 344.291 301.269 344.291 293.973V293.885C344.291 287.071 339.313 283.115 331.628 283.115H318.485V313.885ZM326.956 298.412V290.28H330.973C333.986 290.28 335.864 291.643 335.864 294.28V294.368C335.864 296.83 333.986 298.412 331.017 298.412H326.956Z" fill="white"/>
<defs>
<filter id="filter0_d_1_2858" x="0" y="-72" width="864.866" height="770" filterUnits="userSpaceOnUse" color-interpolation-filters="sRGB">
<feFlood flood-opacity="0" result="BackgroundImageFix"/>
<feColorMatrix in="SourceAlpha" type="matrix" values="0 0 0 0 0 0 0 0 0 0 0 0 0 0 0 0 0 0 127 0" result="hardAlpha"/>
<feOffset dy="10"/>
<feGaussianBlur stdDeviation="15"/>
<feColorMatrix type="matrix" values="0 0 0 0 0.0941176 0 0 0 0 0.0941176 0 0 0 0 0.0941176 0 0 0 0.2 0"/>
<feBlend mode="normal" in2="BackgroundImageFix" result="effect1_dropShadow_1_2858"/>
<feBlend mode="normal" in="SourceGraphic" in2="effect1_dropShadow_1_2858" result="shape"/>
</filter>
<linearGradient id="paint0_linear_1_2858" x1="178.072" y1="194.939" x2="360.986" y2="309.009" gradientUnits="userSpaceOnUse">
<stop stop-color="#0080CD" stop-opacity="0.46"/>
<stop offset="1" stop-color="#470A3F" stop-opacity="0.6"/>
</linearGradient>
<linearGradient id="paint1_linear_1_2858" x1="701.107" y1="77.5535" x2="-44.2981" y2="452.596" gradientUnits="userSpaceOnUse">
<stop offset="0.145833" stop-color="#240E25" stop-opacity="0.89"/>
<stop offset="1" stop-color="#240E25" stop-opacity="0"/>
</linearGradient>
<clipPath id="clip0_1_2858">
<rect width="102" height="115" fill="white" transform="translate(200 145)"/>
</clipPath>
</defs>
</svg>
