<svg width="128" height="128" viewBox="0 0 128 128" fill="none" xmlns="http://www.w3.org/2000/svg">
<g filter="url(#filter0_d_1_2818)">
<path d="M67.8395 20.8621L96.9178 49.9403C97.071 51.2357 97.1499 52.5539 97.1499 53.8905C97.1499 72.2598 82.2587 87.151 63.8894 87.151C45.5201 87.151 30.6289 72.2598 30.6289 53.8905C30.6289 35.5212 45.5201 20.63 63.8894 20.63C65.226 20.63 66.5442 20.7088 67.8395 20.8621Z" fill="#63C1A0"/>
<path d="M96.9199 49.9391C81.7089 48.1386 69.6434 36.0732 67.8429 20.8621L96.9199 49.9391Z" fill="#258B74"/>
<path d="M43.5148 49.0677C45.2324 49.5279 46.4142 49.0437 47.4334 48.2289L46.1158 46.6326C45.4838 47.0729 44.9138 47.3266 44.0995 47.1085C43.0065 46.8156 42.482 45.6948 42.7958 44.5237L42.8017 44.5014C43.1066 43.3637 44.1272 42.633 45.2203 42.9259C45.9787 43.1291 46.382 43.6317 46.6817 44.2977L48.6478 43.4737C48.2215 42.3434 47.3524 41.3932 45.7686 40.9689C43.404 40.3353 41.1859 41.6536 40.5762 43.9289L40.5702 43.9513C39.9456 46.2823 41.2841 48.47 43.5148 49.0677ZM51.6225 51.2401C54.0316 51.8857 56.3256 50.5518 56.9263 48.3099L56.9323 48.2876C57.53 46.0569 56.2296 43.7719 53.8205 43.1264C51.4113 42.4808 49.1173 43.8147 48.5166 46.0566L48.5106 46.0789C47.9129 48.3096 49.2133 50.5946 51.6225 51.2401ZM52.1678 49.2943C50.9743 48.9745 50.4261 47.7636 50.725 46.6483L50.7309 46.626C51.0328 45.4995 52.0817 44.7525 53.2751 45.0722C54.4686 45.392 55.0116 46.5776 54.7068 47.7152L54.7008 47.7375C54.399 48.864 53.35 49.611 52.1678 49.2943ZM56.9963 52.5127L59.1155 53.0805L60.3139 48.608L61.4833 52.1848L61.5279 52.1968L64.3433 49.6757L63.1419 54.1594L65.2945 54.7362L67.3865 46.9287L65.1001 46.3161L62.4275 48.8396L61.3748 45.3179L59.0883 44.7052L56.9963 52.5127ZM66.7352 55.1222L68.8989 55.702L70.9909 47.8945L68.8272 47.3148L66.7352 55.1222ZM70.3282 56.085L72.4697 56.6588L73.6173 52.3758L75.8158 57.5554L77.7007 58.0604L79.7927 50.253L77.6513 49.6792L76.5455 53.806L74.439 48.8184L72.4203 48.2775L70.3282 56.085ZM83.0255 59.6546C84.4643 60.0401 85.7171 59.8259 86.7419 59.3474L87.6803 55.8451L84.1 54.8858L83.6757 56.4696L85.2037 56.879L84.9497 57.8271C84.5806 57.9553 84.1492 57.9593 83.6138 57.8158C82.3758 57.4841 81.7367 56.3446 82.0774 55.0731L82.0834 55.0508C82.4032 53.8573 83.5353 53.1565 84.6507 53.4554C85.4426 53.6676 85.8981 54.0646 86.3384 54.6966L88.0223 53.4981C87.3771 52.5601 86.5396 51.8934 85.1566 51.5228C82.7474 50.8773 80.4847 52.1837 79.875 54.459L79.869 54.4813C79.2324 56.857 80.5829 59.0001 83.0255 59.6546ZM46.1031 63.1959C47.9992 63.704 49.5136 63.0936 49.9409 61.4987L49.9469 61.4764C50.3384 60.0153 49.3785 59.1364 47.6985 58.2679C46.6682 57.7408 46.4484 57.4906 46.541 57.1448L46.547 57.1225C46.6277 56.8214 46.938 56.6894 47.4622 56.8298C48.1649 57.0181 48.8687 57.4697 49.4421 58.1852L50.9334 56.947C50.2681 56.0395 49.3376 55.4077 47.9991 55.049C46.1253 54.547 44.6986 55.2764 44.3071 56.7375L44.3011 56.7598C43.8708 58.3659 45.042 59.1699 46.5911 59.9914C47.5902 60.546 47.8049 60.7709 47.7152 61.1055L47.7092 61.1278C47.6166 61.4736 47.2535 61.5795 46.6623 61.4211C45.77 61.182 45.0061 60.6426 44.3815 59.8058L42.7914 60.9219C43.5428 62.0437 44.7089 62.8223 46.1031 63.1959ZM54.243 65.4009C56.6522 66.0464 58.9462 64.7126 59.5469 62.4707L59.5529 62.4484C60.1506 60.2177 58.8502 57.9327 56.441 57.2871C54.0319 56.6416 51.7378 57.9755 51.1371 60.2173L51.1312 60.2396C50.5335 62.4703 51.8339 64.7554 54.243 65.4009ZM54.7883 63.455C53.5949 63.1352 53.0467 61.9244 53.3455 60.8091L53.3515 60.7868C53.6534 59.6603 54.7023 58.9132 55.8957 59.233C57.0891 59.5528 57.6322 60.7383 57.3274 61.876L57.3214 61.8983C57.0195 63.0248 55.9706 63.7718 54.7883 63.455ZM63.5122 67.8846C65.9214 68.5301 68.2154 67.1962 68.8161 64.9544L68.8221 64.9321C69.4198 62.7014 68.1194 60.4163 65.7102 59.7708C63.3011 59.1253 61.007 60.4591 60.4063 62.701L60.4004 62.7233C59.8026 64.954 61.1031 67.2391 63.5122 67.8846ZM64.0575 65.9387C62.8641 65.6189 62.3159 64.4081 62.6147 63.2927L62.6207 63.2704C62.9226 62.1439 63.9715 61.3969 65.1649 61.7167C66.3583 62.0365 66.9014 63.222 66.5965 64.3597L66.5906 64.382C66.2887 65.5085 65.2398 66.2555 64.0575 65.9387ZM68.8861 69.1571L71.0275 69.731L72.1752 65.448L74.3736 70.6275L76.2585 71.1326L78.3505 63.3251L76.2091 62.7513L75.1033 66.8781L72.9969 61.8906L70.9781 61.3497L68.8861 69.1571Z" fill="white"/>
</g>
<defs>
<filter id="filter0_d_1_2818" x="0.628906" y="0.630005" width="126.521" height="126.521" filterUnits="userSpaceOnUse" color-interpolation-filters="sRGB">
<feFlood flood-opacity="0" result="BackgroundImageFix"/>
<feColorMatrix in="SourceAlpha" type="matrix" values="0 0 0 0 0 0 0 0 0 0 0 0 0 0 0 0 0 0 127 0" result="hardAlpha"/>
<feOffset dy="10"/>
<feGaussianBlur stdDeviation="15"/>
<feColorMatrix type="matrix" values="0 0 0 0 0.0941176 0 0 0 0 0.0941176 0 0 0 0 0.0941176 0 0 0 0.2 0"/>
<feBlend mode="normal" in2="BackgroundImageFix" result="effect1_dropShadow_1_2818"/>
<feBlend mode="normal" in="SourceGraphic" in2="effect1_dropShadow_1_2818" result="shape"/>
</filter>
</defs>
</svg>
