<svg width="48" height="40" viewBox="0 0 48 40" fill="none" xmlns="http://www.w3.org/2000/svg">
<path d="M47.2931 9.11133L45.462 15.9367H29.2344L31.0655 9.11133H47.2931Z" fill="#FDA509"/>
<path d="M18.0272 24.0321L16.2276 30.794H0L1.83113 24.0004L18.0272 24.0321Z" fill="#63C1A0"/>
<path d="M36.2748 15.9365H29.2344L33.4965 0H40.5053L36.2748 15.9365Z" fill="#89D3DF"/>
<path d="M13.8008 40H6.79199L11.0225 24.0317H18.0314L13.8008 40Z" fill="#E01A59"/>
<path d="M22.0057 9.11133L20.1746 15.9367H3.97852L5.77808 9.11133H22.0057Z" fill="#FDA509"/>
<path d="M20.1709 15.9365H13.1621L17.4242 0H24.4646L20.1709 15.9365Z" fill="#E01A59"/>
<path d="M29.833 40H22.8242L27.0548 24.0317H34.0952L29.833 40Z" fill="#89D3DF"/>
<path d="M43.3221 24.0315L41.5225 30.7934H25.2949L27.0629 23.9998L43.3221 24.0315Z" fill="#63C1A0"/>
<path d="M32.2706 30.7939H9.22363L15.0012 9.11133H38.0797L32.2706 30.7939Z" fill="#331433"/>
<path d="M20.3664 19.062V19.0452C20.3664 18.7429 20.3135 18.4686 20.2078 18.2223C20.1076 17.9704 19.96 17.7549 19.7652 17.5758C19.5759 17.3966 19.3421 17.2595 19.0637 17.1643C18.791 17.0636 18.4792 17.0132 18.1285 17.0132H15.7402V22.8909H17.0262V21.1276H18.0032C18.3317 21.1276 18.6379 21.0856 18.9218 21.0016C19.2113 20.9121 19.4618 20.7805 19.6733 20.607C19.8904 20.4335 20.0602 20.2179 20.1827 19.9604C20.3052 19.7029 20.3664 19.4035 20.3664 19.062ZM19.0637 19.0872C19.0637 19.3391 18.9747 19.5518 18.7965 19.7253C18.6184 19.8933 18.3679 19.9772 18.045 19.9772H17.0262V18.1803H18.0199C18.3428 18.1803 18.5961 18.2559 18.7798 18.407C18.9691 18.5582 19.0637 18.7793 19.0637 19.0704V19.0872Z" fill="white"/>
<path d="M26.7042 19.952V19.9353C26.7042 19.521 26.629 19.1376 26.4787 18.7849C26.3284 18.4266 26.1141 18.116 25.8357 17.8529C25.563 17.5898 25.2345 17.3854 24.8504 17.2399C24.4718 17.0888 24.0543 17.0132 23.5978 17.0132H21.3181V22.8909H23.5978C24.0543 22.8909 24.4718 22.8153 24.8504 22.6642C25.2345 22.5131 25.563 22.3059 25.8357 22.0428C26.1141 21.7797 26.3284 21.4691 26.4787 21.1108C26.629 20.7525 26.7042 20.3663 26.7042 19.952ZM25.3598 19.9688C25.3598 20.2319 25.3152 20.4698 25.2262 20.6826C25.1427 20.8953 25.023 21.08 24.8671 21.2367C24.7168 21.3935 24.5331 21.5138 24.316 21.5978C24.0988 21.6818 23.8595 21.7238 23.5978 21.7238H22.6041V18.1803H23.5978C23.8595 18.1803 24.0988 18.2251 24.316 18.3147C24.5331 18.3986 24.7168 18.519 24.8671 18.6757C25.023 18.8325 25.1427 19.02 25.2262 19.2383C25.3152 19.4566 25.3598 19.6945 25.3598 19.952V19.9688Z" fill="white"/>
<path d="M32.3009 18.1887V17.0132H27.8501V22.8909H29.1361V20.6154H31.9252V19.4398H29.1361V18.1887H32.3009Z" fill="white"/>
</svg>
