<svg width="308" height="216" viewBox="0 0 308 216" fill="none" xmlns="http://www.w3.org/2000/svg">
<g filter="url(#filter0_d_1_2763)">
<path fill-rule="evenodd" clip-rule="evenodd" d="M173.813 190.896H275.692V67.8704L254.957 47.0737H173.813V190.896V190.896Z" fill="#F20036"/>
<path fill-rule="evenodd" clip-rule="evenodd" d="M254.986 67.8566L265.312 57.4843L275.691 67.8566V88.6568L254.986 67.8566Z" fill="#E10029"/>
<path fill-rule="evenodd" clip-rule="evenodd" d="M275.691 67.8744H254.985V47.0912L275.691 67.8744Z" fill="#A8000A"/>
<path fill-rule="evenodd" clip-rule="evenodd" d="M252.728 99.2565L239.826 101.666L228.994 86.8754L233.349 76.9598L231.063 70.3308L217.617 71.2077L215.222 75.4255L222.516 87.4786L212.881 106.707L195.244 109.994L191.706 121.718L200.688 131.031L209.724 130.921L216.91 114.431L235.472 109.063L240.153 116.787L250.169 115.91L255.994 103.091L252.728 99.2565ZM221.046 75.8642L228.014 76.4667L225.347 81.7807L221.046 75.8642ZM204.553 123.36L201.45 118.923L207.656 117.115L204.553 123.36ZM221.046 105.172L226.163 93.5044L232.042 103.146L221.046 105.172ZM243.528 106.707L248.427 105.282L245.488 109.392L243.528 106.707Z" fill="white"/>
<path fill-rule="evenodd" clip-rule="evenodd" d="M207.771 142.916H287.671V174.892H207.771V142.916Z" fill="#A8000A"/>
<path fill-rule="evenodd" clip-rule="evenodd" d="M218.956 163.325V167.304H223.065V163.325H218.956ZM238.848 160.539C239.503 160.024 240.017 159.385 240.392 158.622C240.766 157.86 240.953 156.972 240.953 155.961V155.911C240.953 155.015 240.796 154.198 240.481 153.46C240.166 152.723 239.716 152.087 239.129 151.557C238.542 151.026 237.827 150.616 236.985 150.325C236.143 150.036 235.186 149.89 234.114 149.89H226.816V167.304H230.746V162.08H233.732C234.735 162.08 235.675 161.952 236.551 161.695C237.427 161.437 238.193 161.052 238.848 160.539ZM236.117 154.02C236.687 154.467 236.972 155.123 236.972 155.985V156.035C236.972 156.782 236.7 157.407 236.156 157.913C235.611 158.419 234.846 158.672 233.859 158.672H230.746V153.348H233.783C234.769 153.348 235.547 153.572 236.117 154.02ZM257.681 164.793C258.523 164.013 259.174 163.093 259.633 162.031C260.092 160.97 260.322 159.825 260.322 158.597V158.548C260.322 157.32 260.092 156.18 259.633 155.127C259.174 154.073 258.523 153.158 257.681 152.377C256.839 151.599 255.835 150.989 254.67 150.549C253.504 150.11 252.224 149.89 250.829 149.89H243.863V167.304H250.829C252.224 167.304 253.504 167.081 254.67 166.633C255.835 166.186 256.839 165.572 257.681 164.793ZM255.818 156.484C256.082 157.129 256.214 157.835 256.214 158.597V158.647C256.214 159.427 256.082 160.132 255.818 160.762C255.554 161.392 255.189 161.941 254.721 162.404C254.253 162.869 253.687 163.225 253.024 163.473C252.36 163.722 251.629 163.847 250.829 163.847H247.792V153.348H250.829C251.629 153.348 252.36 153.477 253.024 153.733C253.687 153.991 254.253 154.352 254.721 154.816C255.189 155.28 255.554 155.837 255.818 156.484ZM267.748 157.105V153.348H277.42V149.89H263.818V167.304H267.748V160.563H276.271V157.105H267.748Z" fill="white"/>
<path fill-rule="evenodd" clip-rule="evenodd" d="M150.013 48.0656V64.8497H90.9203V120.981H150.013V137.955L200.785 93.1052L150.013 48.0656Z" fill="#1B0B1C"/>
<path fill-rule="evenodd" clip-rule="evenodd" d="M165 86.6372C165 85.9039 164.474 85.0044 163.831 84.6378L152.669 78.275C152.026 77.9084 150.974 77.9084 150.331 78.275L139.169 84.6378C138.526 85.0043 138 85.9041 138 86.6372V99.3629C138 99.7295 138.131 100.138 138.343 100.5C138.555 100.863 138.847 101.179 139.169 101.362L150.331 107.725C150.662 107.914 151.102 108.006 151.539 108C151.632 107.999 151.725 107.993 151.816 107.983C152.129 107.949 152.428 107.863 152.669 107.725L163.831 101.362C164.152 101.179 164.445 100.862 164.656 100.5C164.868 100.138 165 99.7295 165 99.3629V86.6372ZM151.5 101.887C146.537 101.887 142.5 97.9001 142.5 93.0002C142.5 88.1002 146.537 84.1138 151.5 84.1138C154.702 84.1138 157.689 85.8153 159.294 88.5542L155.399 90.7796C154.596 89.4087 153.101 88.557 151.5 88.557C149.019 88.557 147 90.5502 147 93.0002C147 95.4501 149.019 97.4433 151.5 97.4433C153.102 97.4433 154.596 96.5916 155.399 95.2204L159.294 97.4458C157.689 100.185 154.702 101.887 151.5 101.887ZM160.5 92.5064H159.5V91.5191H158.5V92.5064H157.5V93.4938H158.5V94.4812H159.5V93.4938H160.5V92.5064ZM164.25 92.5064H163.25V91.5191H162.25V92.5064H161.25V93.4938H162.25V94.4812H163.25V93.4938H164.25V92.5064Z" fill="white"/>
<path fill-rule="evenodd" clip-rule="evenodd" d="M20 158.935H121.879V35.9095L101.144 15.1129H20V158.935Z" fill="#F49400"/>
<path fill-rule="evenodd" clip-rule="evenodd" d="M101.174 35.9135L111.499 25.5398L121.879 35.9135V56.7131L101.174 35.9135Z" fill="#F08400"/>
<path fill-rule="evenodd" clip-rule="evenodd" d="M121.878 35.9307H101.173V15.1482L121.878 35.9307Z" fill="#D23F00"/>
<path fill-rule="evenodd" clip-rule="evenodd" d="M36.9816 110.941H133.86V142.917H36.9816V110.941Z" fill="#D24000"/>
<path fill-rule="evenodd" clip-rule="evenodd" d="M93.1316 55.8857H71.9417H59.5578L60.3585 64.9185H71.9417H92.3311L89.9244 91.9989L71.9417 97.0073L71.9266 97.0125L53.954 91.9989L52.698 77.835H61.5043L62.1598 85.1847L71.9318 87.8362L71.9417 87.8309V87.8309L81.7235 85.1795L82.7445 73.7407H71.9417V73.7407H52.3378L49.9662 47.0738H71.9417H93.9122L93.1316 55.8857Z" fill="#FEFEFE"/>
<path fill-rule="evenodd" clip-rule="evenodd" d="M65.2195 135.979V128.763H58.1284V135.979H54.2829V118.002H58.1284V125.116H65.2195V118.002H69.0649V135.979H65.2195ZM45.9834 135.979V131.871H50.0033V135.979H45.9834ZM81.0998 135.979V121.648H86.4184V118.002H71.9362V121.648H77.2546V135.979H81.0998ZM102.96 135.979V124.242L98.0414 131.922H97.9415L93.0726 124.32V135.979H89.2773V118.002H93.4221L98.0164 125.604L102.611 118.002H106.756V135.979H102.96ZM111.315 118.002V135.979H123.875V132.41H115.16V118.002H111.315Z" fill="white"/>
</g>
<defs>
<filter id="filter0_d_1_2763" x="0" y="0.112946" width="307.671" height="215.783" filterUnits="userSpaceOnUse" color-interpolation-filters="sRGB">
<feFlood flood-opacity="0" result="BackgroundImageFix"/>
<feColorMatrix in="SourceAlpha" type="matrix" values="0 0 0 0 0 0 0 0 0 0 0 0 0 0 0 0 0 0 127 0" result="hardAlpha"/>
<feOffset dy="5"/>
<feGaussianBlur stdDeviation="10"/>
<feColorMatrix type="matrix" values="0 0 0 0 0 0 0 0 0 0 0 0 0 0 0 0 0 0 0.15 0"/>
<feBlend mode="normal" in2="BackgroundImageFix" result="effect1_dropShadow_1_2763"/>
<feBlend mode="normal" in="SourceGraphic" in2="effect1_dropShadow_1_2763" result="shape"/>
</filter>
</defs>
</svg>
