<svg width="113" height="40" viewBox="0 0 113 40" fill="none" xmlns="http://www.w3.org/2000/svg">
<path d="M1.93387 39.5313H3.30834V31.5165H6.21794V30.3384H3.29049V29.5887C3.29049 28.2856 3.826 27.6252 4.89702 27.6252C5.37898 27.6252 5.73598 27.7144 6.23579 27.8572V26.6613C5.78953 26.5006 5.36113 26.4292 4.71852 26.4292C3.87955 26.4292 3.21909 26.6613 2.73714 27.1432C2.20163 27.6787 1.93387 28.4641 1.93387 29.5173V30.3206H0.666504V31.5165H1.93387V39.5313Z" fill="#C6AAC6"/>
<path d="M11.3714 39.7455C14.1561 39.7455 16.2089 37.5499 16.2089 34.9259V34.8902C16.2089 32.2841 14.1918 30.1064 11.4071 30.1064C8.60466 30.1064 6.58758 32.3019 6.58758 34.9259V34.9616C6.58758 37.5678 8.60466 39.7455 11.3714 39.7455ZM11.4071 38.5138C9.46147 38.5138 7.99775 36.9073 7.99775 34.9259V34.8902C7.99775 32.9446 9.37222 31.3202 11.3714 31.3202C13.3171 31.3202 14.7987 32.9445 14.7987 34.9259V34.9616C14.7987 36.8895 13.4064 38.5138 11.4071 38.5138Z" fill="#C6AAC6"/>
<path d="M18.0612 39.5313H19.4357V35.8541C19.4357 33.0695 21.0779 31.6236 23.095 31.6236H23.2021V30.1421C21.4527 30.0885 20.114 31.1774 19.4357 32.7125V30.3027H18.0612V39.5313Z" fill="#C6AAC6"/>
<path d="M29.6041 39.5313H30.9785V29.2852L39.0469 39.5313H40.1714V27.0361H38.797V37.0501L30.925 27.0361H29.6041V39.5313Z" fill="#C6AAC6"/>
<path d="M47.0496 39.7455C49.8342 39.7455 51.887 37.5499 51.887 34.9259V34.8902C51.887 32.2841 49.8699 30.1064 47.0853 30.1064C44.2828 30.1064 42.2657 32.3019 42.2657 34.9259V34.9616C42.2657 37.5678 44.2828 39.7455 47.0496 39.7455ZM47.0853 38.5138C45.1396 38.5138 43.6759 36.9073 43.6759 34.9259V34.8902C43.6759 32.9446 45.0504 31.3202 47.0496 31.3202C48.9953 31.3202 50.4768 32.9445 50.4768 34.9259V34.9616C50.4768 36.8895 49.0845 38.5138 47.0853 38.5138Z" fill="#C6AAC6"/>
<path d="M57.6128 39.7277C59.3265 39.7277 60.3796 38.7816 61.1472 37.6749V39.5313H62.5217V26.5006H61.1472V32.0699C60.4332 31.0167 59.3265 30.1064 57.6128 30.1064C55.3994 30.1064 53.2038 31.9092 53.2038 34.9081V34.9438C53.2038 37.9783 55.3994 39.7277 57.6128 39.7277ZM57.8628 38.496C56.0956 38.496 54.614 37.1215 54.614 34.9259V34.8902C54.614 32.6589 56.0777 31.338 57.8628 31.338C59.5764 31.338 61.2007 32.766 61.2007 34.8902V34.9259C61.2007 37.0501 59.5764 38.496 57.8628 38.496Z" fill="#C6AAC6"/>
<path d="M68.9897 39.7455C70.7569 39.7455 71.8636 39.0672 72.7918 38.014L71.935 37.2465C71.1674 38.0319 70.3106 38.5495 69.0254 38.5495C67.3832 38.5495 65.973 37.425 65.7766 35.4257H73.0953C73.1131 35.2651 73.1131 35.1758 73.1131 34.9795C73.1131 32.2841 71.5423 30.1064 68.8112 30.1064C66.2407 30.1064 64.3843 32.2484 64.3843 34.9081V34.9438C64.3843 37.7998 66.4728 39.7455 68.9897 39.7455ZM65.7766 34.4083C65.973 32.6232 67.1511 31.2666 68.7755 31.2666C70.6319 31.2666 71.578 32.7482 71.7208 34.4083H65.7766Z" fill="#C6AAC6"/>
<path d="M77.7556 39.7098C78.8802 39.7098 79.7906 39.3706 80.5046 38.6745C81.2186 37.9605 81.647 36.8716 81.647 35.39V27.0361H80.219V35.4079C80.219 37.3893 79.1837 38.4067 77.7735 38.4067C76.4704 38.4067 75.685 37.782 74.9174 36.6217L73.9 37.4964C74.6854 38.7816 75.8814 39.7098 77.7556 39.7098Z" fill="#C6AAC6"/>
<path d="M88.6268 39.7098C91.108 39.7098 92.893 38.3175 92.893 36.1755V36.1397C92.893 34.2298 91.6078 33.2302 88.8232 32.6054C86.0564 32.0342 85.4316 31.3559 85.4316 30.1778V30.1421C85.4316 28.9996 86.4491 28.125 88.0913 28.125C89.3765 28.125 90.5368 28.5355 91.6971 29.4816L92.5182 28.3927C91.233 27.3753 89.9656 26.8576 88.127 26.8576C85.7529 26.8576 84.0214 28.3213 84.0214 30.267V30.3027C84.0214 32.3555 85.3424 33.2837 88.2163 33.9085C90.8403 34.4797 91.465 35.1223 91.465 36.2826V36.3183C91.465 37.5499 90.3761 38.4424 88.6804 38.4424C86.9489 38.4424 85.6994 37.8712 84.3963 36.6753L83.5216 37.7106C85.0211 39.0672 86.6276 39.7098 88.6268 39.7098Z" fill="#C6AAC6"/>
<path d="M0.666504 0.603695H4.40039V17.6831H0.666504V0.540202V0.603695ZM8.60494 0.603695H16.3551C18.4888 0.603695 20.1204 1.17512 21.2813 2.31799C21.7697 2.84329 22.149 3.46229 22.3969 4.13841C22.6448 4.81454 22.7563 5.53407 22.7247 6.25451V6.28626C22.7247 7.68309 22.4109 8.82595 21.7206 9.6831C21.0435 10.5496 20.1419 11.209 19.1163 11.5879L23.2267 17.7149H18.8967L15.2569 12.2228H12.3702V17.7149H8.66769V0.540202L8.60494 0.603695ZM16.1355 8.88944C17.0454 8.88944 17.7357 8.69897 18.2377 8.25452C18.4819 8.03173 18.6735 7.75633 18.7984 7.44864C18.9233 7.14095 18.9783 6.80882 18.9594 6.47673V6.44499C18.9594 5.61959 18.7084 5.01641 18.2064 4.60371C17.673 4.19101 16.9513 3.96879 16.0413 3.96879H12.3388V8.88944H16.1355ZM34.3342 18.0006C31.9309 18.0281 29.6117 17.1055 27.8705 15.4292C27.0519 14.6222 26.4066 13.6532 25.9747 12.5826C25.5428 11.5121 25.3337 10.3629 25.3604 9.2069V9.11167C25.339 7.3591 25.8434 5.64117 26.8069 4.18458C27.7704 2.728 29.1478 1.6012 30.7572 0.952902C31.8554 0.508456 33.0478 0.254486 34.3656 0.254486C36.7626 0.243753 39.0695 1.17739 40.798 2.85767C41.6165 3.6646 42.2619 4.6336 42.6938 5.70418C43.1257 6.77475 43.3348 7.92392 43.3081 9.07992V9.11167C43.3295 10.8642 42.8251 12.5822 41.8616 14.0388C40.8981 15.4953 39.5207 16.6221 37.9112 17.2704C36.7781 17.7499 35.5625 17.9981 34.3342 18.0006ZM34.3342 14.5085C35.0189 14.518 35.6982 14.3848 36.3298 14.1172C36.9614 13.8495 37.5317 13.4533 38.0054 12.953C38.934 11.934 39.4396 10.5927 39.4174 9.2069V9.11167C39.4475 7.69966 38.9293 6.33197 37.974 5.30213C37.5008 4.79909 36.9312 4.3989 36.3 4.12599C35.6688 3.85308 34.9893 3.71318 34.3029 3.71482C33.6215 3.71564 32.9474 3.85679 32.3216 4.12968C31.6959 4.40257 31.1316 4.80148 30.6631 5.30213C29.7155 6.32405 29.1979 7.67883 29.2198 9.07992V9.11167C29.2182 10.5185 29.7325 11.8759 30.6631 12.9212C31.1338 13.3974 31.6672 13.7784 32.2947 14.0641C32.9223 14.3815 33.6126 14.5085 34.3656 14.5085H34.3342ZM46.6341 0.603695H50.0856L57.9927 11.1434V0.603695H61.6324V17.6831H58.4947L50.2739 6.7942V17.6831H46.6027V0.540202L46.6341 0.603695Z" fill="#C6AAC6"/>
<path d="M65.4924 0.603882H71.8306C72.7719 0.603882 73.6505 0.730867 74.4349 0.984836C75.2193 1.23881 75.8782 1.58801 76.443 2.03246C76.9964 2.53579 77.4367 3.15323 77.7344 3.84321C78.0321 4.5332 78.1802 5.27971 78.1688 6.03247V6.06422C78.1688 7.01661 77.9805 7.81026 77.6354 8.50868C77.2902 9.20709 76.7882 9.77852 76.192 10.2547C75.5625 10.7344 74.8493 11.0898 74.0897 11.3023C73.2739 11.5563 72.4267 11.6515 71.5168 11.6515H67.4378V17.6833H65.4924V0.603882ZM71.6109 9.93725C72.3012 9.93725 72.9288 9.84202 73.4936 9.65154C74.0284 9.49445 74.5289 9.23589 74.9683 8.88963C75.369 8.56119 75.6904 8.14453 75.9079 7.6714C76.1254 7.19828 76.2333 6.68116 76.2234 6.15946V6.09597C76.2234 4.88961 75.8469 3.93723 74.9997 3.33405C74.1525 2.73087 73.0543 2.38167 71.7051 2.38167H67.4064V9.93725H71.6109ZM81.6516 0.603882H87.5192C88.837 0.603882 90.0294 0.794359 91.1589 1.2388C92.2571 1.68325 93.1985 2.28643 93.9829 3.04834C94.7979 3.81789 95.4429 4.75311 95.8755 5.79263C96.3081 6.83216 96.5186 7.95249 96.4931 9.08011V9.1436C96.5097 10.2966 96.2963 11.4411 95.8655 12.5087C95.435 13.5427 94.7934 14.4731 93.9829 15.2389C93.1652 16.02 92.2064 16.6343 91.1589 17.0484C90.0294 17.4928 88.837 17.6833 87.5192 17.6833H81.6516V0.603882ZM87.5192 15.9055C88.586 15.9055 89.5273 15.7468 90.4059 15.3976C91.2194 15.0927 91.9607 14.6188 92.5822 14.0064C93.2037 13.394 93.6915 12.6567 94.0143 11.842C94.3484 11.0048 94.5189 10.11 94.5163 9.20709V9.11185C94.5163 8.15947 94.3594 7.30232 94.0143 6.47692C93.6904 5.65546 93.2029 4.91023 92.5822 4.28761C91.9614 3.66499 91.2206 3.17831 90.4059 2.85786C89.4841 2.50513 88.5045 2.33276 87.5192 2.34992H83.5343V15.8738H87.5192V15.9055ZM100.541 0.603882H112.684V2.38167H102.455V8.47693H111.617V10.223H102.423V17.6833H100.541V0.540389V0.603882Z" fill="#C6AAC6"/>
</svg>
