<svg width="113" height="44" viewBox="0 0 113 44" fill="none" xmlns="http://www.w3.org/2000/svg">
<path d="M1.60038 40.1837H2.97486V32.1689H5.88447V30.9908H2.95701V30.2411C2.95701 28.938 3.49252 28.2775 4.56354 28.2775C5.0455 28.2775 5.40251 28.3668 5.90232 28.5096V27.3136C5.45606 27.1529 5.02765 27.0815 4.38504 27.0815C3.54607 27.0815 2.88561 27.3136 2.40365 27.7956C1.86814 28.3311 1.60038 29.1165 1.60038 30.1697V30.9729H0.333008V32.1689H1.60038V40.1837Z" fill="#C6AAC6"/>
<path d="M11.038 40.3979C13.8227 40.3979 15.8754 38.2023 15.8754 35.5783V35.5426C15.8754 32.9365 13.8584 30.7587 11.0737 30.7587C8.2712 30.7587 6.25411 32.9543 6.25411 35.5783V35.614C6.25411 38.2202 8.2712 40.3979 11.038 40.3979ZM11.0737 39.1662C9.12801 39.1662 7.66428 37.5597 7.66428 35.5783V35.5426C7.66428 33.5969 9.03876 31.9725 11.038 31.9725C12.9837 31.9725 14.4653 33.5969 14.4653 35.5783V35.614C14.4653 37.5419 13.0729 39.1662 11.0737 39.1662Z" fill="#C6AAC6"/>
<path d="M17.7278 40.1837H19.1023V36.5065C19.1023 33.7219 20.7445 32.276 22.7616 32.276H22.8687V30.7944C21.1193 30.7409 19.7806 31.8297 19.1023 33.3649V30.9551H17.7278V40.1837Z" fill="#C6AAC6"/>
<path d="M29.2707 40.1837H30.6809V35.7747H33.7154C36.3751 35.7747 38.6243 34.3823 38.6243 31.6869V31.6512C38.6243 29.1879 36.7679 27.6885 33.9475 27.6885H29.2707V40.1837ZM30.6809 34.4894V28.9915H33.8404C35.8575 28.9915 37.1963 29.9197 37.1963 31.7048V31.7405C37.1963 33.3827 35.8396 34.4894 33.769 34.4894H30.6809Z" fill="#C6AAC6"/>
<path d="M44.4439 38.6486L41.088 30.9551H39.5707L43.7656 40.148C43.2122 41.4511 42.7124 41.8795 41.8734 41.8795C41.2844 41.8795 40.8738 41.7724 40.4275 41.5403L39.9634 42.6292C40.5882 42.9327 41.1594 43.0933 41.927 43.0933C43.3014 43.0933 44.2118 42.3971 44.9972 40.4872L48.8708 30.9551H47.407L44.4439 38.6486Z" fill="#C6AAC6"/>
<path d="M53.4959 40.3444C54.1564 40.3444 54.674 40.2194 55.156 39.9517V38.7735C54.674 39.0056 54.2992 39.0948 53.8172 39.0948C52.889 39.0948 52.2642 38.7021 52.2642 37.5597V32.1689H55.1917V30.9551H52.2642V28.1704H50.8897V30.9551H49.6045V32.1689H50.8897V37.7382C50.8897 39.6125 51.9965 40.3444 53.4959 40.3444Z" fill="#C6AAC6"/>
<path d="M56.9871 40.1837H58.3616V34.9C58.3616 33.1685 59.5397 32.0082 61.1284 32.0082C62.7706 32.0082 63.681 33.0793 63.681 34.7929V40.1837H65.0555V34.4537C65.0555 32.2581 63.7345 30.7587 61.5211 30.7587C59.9324 30.7587 58.9863 31.562 58.3616 32.5616V27.1529H56.9871V40.1837Z" fill="#C6AAC6"/>
<path d="M71.5619 40.3979C74.3465 40.3979 76.3993 38.2023 76.3993 35.5783V35.5426C76.3993 32.9365 74.3822 30.7587 71.5976 30.7587C68.7951 30.7587 66.778 32.9543 66.778 35.5783V35.614C66.778 38.2202 68.7951 40.3979 71.5619 40.3979ZM71.5976 39.1662C69.6519 39.1662 68.1881 37.5597 68.1881 35.5783V35.5426C68.1881 33.5969 69.5626 31.9725 71.5619 31.9725C73.5076 31.9725 74.9891 33.5969 74.9891 35.5783V35.614C74.9891 37.5419 73.5968 39.1662 71.5976 39.1662Z" fill="#C6AAC6"/>
<path d="M78.2516 40.1837H79.6261V34.9C79.6261 33.1685 80.8042 32.0082 82.3929 32.0082C84.0352 32.0082 84.9455 33.0793 84.9455 34.7929V40.1837H86.32V34.4537C86.32 32.2581 84.9991 30.7587 82.7856 30.7587C81.197 30.7587 80.2509 31.562 79.6261 32.5616V30.9551H78.2516V40.1837Z" fill="#C6AAC6"/>
<path d="M0.333008 1.25604H4.0669V18.3355H0.333008V1.19255V1.25604ZM8.27144 1.25604H16.0216C18.1553 1.25604 19.7869 1.82747 20.9478 2.97033C21.4362 3.49564 21.8155 4.11463 22.0634 4.79076C22.3113 5.46688 22.4228 6.18642 22.3912 6.90686V6.9386C22.3912 8.33543 22.0774 9.47829 21.3871 10.3354C20.71 11.202 19.8084 11.8614 18.7828 12.2402L22.8932 18.3672H18.5632L14.9234 12.8751H12.0367V18.3672H8.3342V1.19255L8.27144 1.25604ZM15.802 9.54179C16.7119 9.54179 17.4022 9.35131 17.9042 8.90686C18.1484 8.68407 18.34 8.40868 18.4649 8.10099C18.5898 7.7933 18.6448 7.46116 18.6259 7.12908V7.09733C18.6259 6.27193 18.3749 5.66875 17.8729 5.25605C17.3395 4.84335 16.6178 4.62113 15.7078 4.62113H12.0053V9.54179H15.802ZM34.0008 18.6529C31.5974 18.6805 29.2782 17.7579 27.537 16.0815C26.7185 15.2746 26.0731 14.3056 25.6412 13.235C25.2093 12.1644 25.0002 11.0153 25.0269 9.85925V9.76401C25.0055 8.01144 25.5099 6.29352 26.4734 4.83693C27.4369 3.38034 28.8143 2.25355 30.4237 1.60525C31.522 1.1608 32.7143 0.90683 34.0321 0.90683C36.4291 0.896097 38.736 1.82973 40.4645 3.51002C41.2831 4.31694 41.9284 5.28594 42.3603 6.35652C42.7922 7.4271 43.0013 8.57626 42.9746 9.73226V9.76401C42.996 11.5166 42.4916 13.2345 41.5281 14.6911C40.5646 16.1477 39.1872 17.2745 37.5778 17.9228C36.4446 18.4023 35.229 18.6504 34.0008 18.6529ZM34.0008 15.1609C34.6854 15.1703 35.3647 15.0371 35.9963 14.7695C36.6279 14.5019 37.1982 14.1056 37.6719 13.6053C38.6005 12.5864 39.1061 11.245 39.0839 9.85925V9.76401C39.114 8.352 38.5958 6.98432 37.6405 5.95447C37.1673 5.45143 36.5977 5.05124 35.9665 4.77833C35.3353 4.50542 34.6558 4.36552 33.9694 4.36716C33.288 4.36798 32.6139 4.50913 31.9881 4.78202C31.3624 5.05491 30.7981 5.45383 30.3296 5.95447C29.382 6.9764 28.8644 8.33117 28.8863 9.73226V9.76401C28.8847 11.1708 29.399 12.5282 30.3296 13.5736C30.8003 14.0497 31.3337 14.4307 31.9612 14.7164C32.5888 15.0339 33.2791 15.1609 34.0321 15.1609H34.0008ZM46.3006 1.25604H49.7521L57.6592 11.7958V1.25604H61.2989V18.3355H58.1612L49.9404 7.44654V18.3355H46.2692V1.19255L46.3006 1.25604Z" fill="#C6AAC6"/>
<path d="M65.1589 1.25623H71.4971C72.4384 1.25623 73.317 1.38321 74.1014 1.63718C74.8858 1.89115 75.5447 2.24036 76.1095 2.6848C76.6629 3.18813 77.1032 3.80557 77.4009 4.49556C77.6986 5.18554 77.8467 5.93205 77.8353 6.68482V6.71657C77.8353 7.66895 77.647 8.4626 77.3019 9.16102C76.9567 9.85944 76.4547 10.4309 75.8585 10.9071C75.229 11.3867 74.5158 11.7421 73.7562 11.9547C72.9404 12.2087 72.0932 12.3039 71.1833 12.3039H67.1043V18.3357H65.1589V1.25623ZM71.2774 10.5896C71.9677 10.5896 72.5953 10.4944 73.1601 10.3039C73.6949 10.1468 74.1954 9.88823 74.6348 9.54197C75.0356 9.21353 75.3569 8.79687 75.5744 8.32375C75.7919 7.85062 75.8998 7.33351 75.8899 6.8118V6.74831C75.8899 5.54196 75.5134 4.58957 74.6662 3.98639C73.819 3.38322 72.7208 3.03401 71.3716 3.03401H67.0729V10.5896H71.2774ZM81.3181 1.25623H87.1857C88.5035 1.25623 89.6959 1.4467 90.8254 1.89115C91.9236 2.33559 92.865 2.93877 93.6494 3.70068C94.4644 4.47023 95.1094 5.40545 95.542 6.44498C95.9746 7.4845 96.1851 8.60483 96.1596 9.73245V9.79594C96.1762 10.9489 95.9628 12.0935 95.532 13.161C95.1015 14.195 94.4599 15.1254 93.6494 15.8912C92.8317 16.6723 91.8729 17.2867 90.8254 17.7007C89.6959 18.1452 88.5035 18.3357 87.1857 18.3357H81.3181V1.25623ZM87.1857 16.5579C88.2525 16.5579 89.1938 16.3991 90.0724 16.0499C90.8859 15.745 91.6272 15.2711 92.2487 14.6587C92.8702 14.0463 93.358 13.3091 93.6808 12.4944C94.0149 11.6571 94.1854 10.7623 94.1828 9.85944V9.7642C94.1828 8.81181 94.0259 7.95467 93.6808 7.12927C93.3569 6.30781 92.8695 5.56257 92.2487 4.93995C91.6279 4.31734 90.8871 3.83065 90.0724 3.5102C89.1506 3.15748 88.171 2.98511 87.1857 3.00226H83.2008V16.5261H87.1857V16.5579ZM100.207 1.25623H112.35V3.03401H102.121V9.12927H111.283V10.8753H102.09V18.3357H100.207V1.19273V1.25623Z" fill="#C6AAC6"/>
</svg>
