<svg width="675" height="759" viewBox="0 0 675 759" fill="none" xmlns="http://www.w3.org/2000/svg">
<mask id="mask0_1_2869" style="mask-type:alpha" maskUnits="userSpaceOnUse" x="30" y="9" width="805" height="710">
<path d="M522.239 9L483.785 81.0306L396.654 74.1596L450.563 143.098L415.029 209.518L323.639 68.4338L353.819 19.3064L522.239 9Z" fill="#89D3DF"/>
<path fill-rule="evenodd" clip-rule="evenodd" d="M834.866 392.401L834.865 392.401L762.216 542.301L702.831 466.148L739.458 418.282L678.372 434.772L702.831 466.148L762.216 542.301L637.117 552.379L578.462 461.797L346.032 524.781L255.86 717.51L142.565 718.999L142.564 719L30 610.324L74.0522 473.02L294.8 434.428L294.802 434.427L483.788 81.0304L522.242 9L551.205 86.2982L496.807 202.418L632.128 375.566L632.129 375.567L793.492 347.51L834.865 392.4L834.866 392.401ZM151.691 577.344L229.573 556.273L190.39 629.562L190.389 629.563L151.691 577.344ZM460.665 279.945L396.657 416.677L533.68 392.743H533.923L460.665 279.945Z" fill="#89D3DF"/>
</mask>
<g mask="url(#mask0_1_2869)">
<g filter="url(#filter0_d_1_2869)">
<path d="M396.653 74.1599L323.639 68.4341L415.029 209.518L450.562 143.099L396.653 74.1599Z" fill="#63C1A0"/>
<path d="M762.217 542.302L702.831 466.148L678.371 434.771L632.129 375.566L631.885 375.681L632.129 375.566L496.808 202.418L460.666 279.945L533.924 392.744H533.681L578.463 461.797L637.118 552.379L669.975 509.321L637.118 552.379L762.217 542.302Z" fill="#63C1A0"/>
<path d="M151.691 577.344L30 610.324L142.564 719L190.389 629.563L151.691 577.344Z" fill="#331433"/>
<path d="M396.655 416.679L294.8 434.429L74.0522 473.021L30 610.325L151.691 577.345L229.573 556.274L346.032 524.782L578.462 461.798L533.679 392.745L396.655 416.679Z" fill="#E01A59"/>
<path d="M793.491 347.51L632.129 375.567L678.372 434.772L739.46 418.281L834.866 392.401L793.491 347.51Z" fill="#E01A59"/>
<path d="M551.206 86.299L483.789 81.0312L450.567 143.099L415.034 209.518L294.803 434.428L396.658 416.678L460.668 279.946L496.81 202.418L551.206 86.299Z" fill="#ECB32D"/>
<path d="M229.576 556.272L190.391 629.563L209.618 655.443L190.391 629.563L142.566 719L255.861 717.511L346.034 524.781L229.576 556.272Z" fill="#ECB32D"/>
<path d="M483.786 81.0306L522.241 9L353.82 19.3064L396.656 74.1596L483.786 81.0306Z" fill="#89D3DF"/>
<path d="M353.818 19.3066L323.639 68.434L396.653 74.1598L353.818 19.3066Z" fill="#89D3DF"/>
<path d="M551.204 86.2983L522.242 9L483.787 81.0306L551.204 86.2983Z" fill="#89D3DF"/>
</g>
<path fill-rule="evenodd" clip-rule="evenodd" d="M30 61H780V719H30V61Z" fill="url(#paint0_linear_1_2869)"/>
</g>
<defs>
<filter id="filter0_d_1_2869" x="0" y="-11" width="864.866" height="770" filterUnits="userSpaceOnUse" color-interpolation-filters="sRGB">
<feFlood flood-opacity="0" result="BackgroundImageFix"/>
<feColorMatrix in="SourceAlpha" type="matrix" values="0 0 0 0 0 0 0 0 0 0 0 0 0 0 0 0 0 0 127 0" result="hardAlpha"/>
<feOffset dy="10"/>
<feGaussianBlur stdDeviation="15"/>
<feColorMatrix type="matrix" values="0 0 0 0 0.0941176 0 0 0 0 0.0941176 0 0 0 0 0.0941176 0 0 0 0.2 0"/>
<feBlend mode="normal" in2="BackgroundImageFix" result="effect1_dropShadow_1_2869"/>
<feBlend mode="normal" in="SourceGraphic" in2="effect1_dropShadow_1_2869" result="shape"/>
</filter>
<linearGradient id="paint0_linear_1_2869" x1="701.107" y1="138.553" x2="-44.2981" y2="513.596" gradientUnits="userSpaceOnUse">
<stop offset="0.145833" stop-color="#240E25" stop-opacity="0.89"/>
<stop offset="1" stop-color="#240E25" stop-opacity="0"/>
</linearGradient>
</defs>
</svg>
